<?xml version="1.0" encoding="iso-8859-1"?>
<!-- Uploaded to: SVG Repo, www.svgrepo.com, Generator: SVG Repo Mixer Tools -->
<svg height="800px" width="800px" version="1.1" id="Layer_1" xmlns="http://www.w3.org/2000/svg" xmlns:xlink="http://www.w3.org/1999/xlink" 
	 viewBox="0 0 512 512" xml:space="preserve">
<g transform="translate(0 -1)">
	<path style="fill:#C03A2B;" d="M406.069,362.931c-25.159-27.674-42.425-51.756-54.263-72.06
		c-19.447-33.351-21.389-73.525-8.686-109.974c9.984-28.663,9.984-56.311,9.984-56.311C353.103,53.966,344.276,1,344.276,1h-35.31
		c-29.44,41.216-43.176,102.073-49.055,138.028c-0.724,4.44-7.097,4.44-7.821,0C246.21,103.073,232.474,42.216,203.034,1h-35.31
		c0,0-8.828,52.966-8.828,123.586c0,0,0,27.648,9.984,56.311c12.703,36.449,10.761,76.623-8.686,109.974
		c-11.838,20.303-29.105,44.385-54.263,72.06c0,0-44.588,59.454-17.849,96.53c4.546,6.312,7.768,13.4,10.002,20.842
		C102.012,493.385,117.698,513,176.552,513H256h79.448c58.854,0,74.54-19.615,78.468-32.697c2.233-7.442,5.455-14.53,10.002-20.842
		C450.657,422.385,406.069,362.931,406.069,362.931"/>
	<path style="fill:#F0C419;" d="M175.973,212.862c1.28,11.82,1.068,23.676-0.777,35.31h161.607
		c-1.845-11.635-2.057-23.49-0.777-35.31H175.973z"/>
	<g>
		<path style="fill:#9B2B23;" d="M407.29,492.041c-0.468-0.503-0.865-1.068-1.457-1.465c-25.097-16.728-61.555-61.016-61.555-92.337
			c0-4.873-3.946-8.828-8.828-8.828s-8.828,3.955-8.828,8.828c0,37.614,37.906,84.259,66.039,104.625
			C399.266,499.597,403.979,495.854,407.29,492.041"/>
		<path style="fill:#9B2B23;" d="M317.529,510.854c-1.059-4.237-2.18-8.121-3.257-11.838c-2.957-10.24-5.305-18.326-5.305-30.155
			c0-4.882-3.946-8.828-8.828-8.828c-4.873,0-8.828,3.946-8.828,8.828c0,14.336,2.913,24.408,6.003,35.063
			c0.83,2.869,1.686,5.897,2.525,9.075h17.788C317.626,512.284,317.715,511.578,317.529,510.854"/>
		<path style="fill:#9B2B23;" d="M214.701,503.879c3.081-10.646,5.994-20.701,5.994-35.019c0-4.882-3.955-8.828-8.828-8.828
			c-4.882,0-8.828,3.946-8.828,8.828c0,11.811-2.339,19.889-5.297,30.111c-1.086,3.734-2.207,7.627-3.266,11.891
			c-0.185,0.724-0.097,1.43-0.097,2.136h17.788C213.006,509.803,213.862,506.766,214.701,503.879"/>
		<path style="fill:#9B2B23;" d="M176.554,389.414c-4.882,0-8.828,3.946-8.828,8.828c0,31.32-36.449,75.599-61.546,92.337
			c-0.6,0.397-0.998,0.962-1.465,1.474c3.319,3.805,8.024,7.548,14.627,10.814c28.142-20.356,66.039-67.01,66.039-104.625
			C185.382,393.36,181.436,389.414,176.554,389.414"/>
	</g>
</g>
</svg>