<?xml version="1.0" encoding="iso-8859-1"?>
<!-- Uploaded to: SVG Repo, www.svgrepo.com, Generator: SVG Repo Mixer Tools -->
<svg height="800px" width="800px" version="1.1" id="Layer_1" xmlns="http://www.w3.org/2000/svg" xmlns:xlink="http://www.w3.org/1999/xlink" 
	 viewBox="0 0 508 508" xml:space="preserve">
<circle style="fill:#84DBFF;" cx="254" cy="254" r="254"/>
<path style="fill:#E6E9EE;" d="M306,400.4c-2.4,15.2-5.2,32-9.6,49.6c-4.4,18-9.6,36.8-16.4,56.4c-8.8,0.8-17.2,1.2-26.4,1.2
	c-8.8,0-17.6-0.4-26.4-1.2c-13.6-39.2-21.6-75.6-26-106c12-38,52-40.8,52-40.8S294.4,362.8,306,400.4z"/>
<path style="fill:#2B3B4E;" d="M501.2,313.2c-5.6,23.6-14.4,46-26.4,66.4c-11.6,20.4-26.4,39.2-43.2,55.6l-0.8-2h-0.4
	c0,0,0-0.4,0.4-0.8l-22-68L320,322l61.2-29.6c-4.8,20.8,4.4,54.4,4.4,53.6c8-24.8,34.4-26.8,34.4-26.8s26.4,2,34.4,26.8
	c0.4,0.8,9.2-33.2,4.4-53.6L501.2,313.2L501.2,313.2z"/>
<path style="fill:#F9B54C;" d="M420,319.2L420,319.2c-35.6-17.2-31.6-39.6-31.6-39.6l0,0c0-0.4,0-0.8,0.4-1.2
	c8.8,10.8,19.6,17.6,31.6,17.6s22.8-6.8,31.6-17.6c0,0.4,0,0.8,0,0.8l0,0C451.6,280,455.6,302,420,319.2z"/>
<g>
	<path style="fill:#FFFFFF;" d="M451.6,280c0,0,4,22.4-31.6,39.6c0,0,26.4,2,34.4,26.8C454.4,347.2,468.8,293.2,451.6,280z"/>
	<path style="fill:#FFFFFF;" d="M388.4,280c0,0-4,22.4,31.6,39.6c0,0-26.4,2-34.4,26.8C385.6,347.2,370.8,293.2,388.4,280z"/>
</g>
<path style="fill:#2B3B4E;" d="M6.8,313.2c5.6,23.6,14.4,46,26.4,66.4c11.6,20.4,26.4,39.2,43.2,55.6l0.8-2h0.4c0,0,0-0.4-0.4-0.8
	l22-68l88.4-42.4l-61.2-29.6c4.8,20.8-4.4,54.4-4.4,53.6c-8-24.8-34.4-26.8-34.4-26.8s-26.4,2-34.4,26.8c-0.4,0.8-9.2-33.2-4.4-53.6
	L6.8,313.2L6.8,313.2z"/>
<path style="fill:#F9B54C;" d="M88,319.2L88,319.2c35.6-17.2,31.6-39.6,31.6-39.6l0,0c0-0.4,0-0.8-0.4-1.2
	c-8.8,10.8-19.6,17.6-31.6,17.6c-11.6,0-22.8-6.8-31.6-17.6c0,0.4,0,0.8,0,0.8l0,0C56.4,280,52.4,302,88,319.2z"/>
<g>
	<path style="fill:#FFFFFF;" d="M56.4,280c0,0-4,22.4,31.6,39.6c0,0-26.4,2-34.4,26.8C53.6,347.2,38.8,293.2,56.4,280z"/>
	<path style="fill:#FFFFFF;" d="M119.6,280c0,0,4,22.4-31.6,39.6c0,0,26.4,2,34.4,26.8C122.4,347.2,136.8,293.2,119.6,280z"/>
</g>
<path style="fill:#FFD05B;" d="M460,254.8c-4,12.8-5.6,19.6-6,20.8l0,0c-9.2,12.4-21.2,21.2-34.4,21.2c-12.4,0-23.6-7.6-32.4-19.2
	c0,0,0,0,0.4,0c-19.2-23.6-6-67.6-6-67.6c9.6,10.8,40.8,11.6,40.8,11.6c-12.8-2-15.6-12-16-13.2c2.4,6.4,32.4,10.4,32.4,10.4
	C470.4,224,460,254.8,460,254.8z"/>
<path style="fill:#2B3B4E;" d="M401.6,164.4c0,0,42.4-16.8,64.4,21.6c23.2,41.2-6,86-12,89.6c0,0,1.6-7.2,6-20.8
	c0,0,10.4-30.4-20.8-35.2c0,0-30.4-4-32.4-10.8c0,0,2.4,11.2,16,13.2c0,0-31.2-0.8-40.8-11.6c0,0-13.2,44,6,67.6
	c0,0-33.6-26.8-29.6-68C358.4,209.6,356.4,152.8,401.6,164.4z"/>
<path style="fill:#FFD05B;" d="M140.8,219.6c0,34.4-23.6,77.2-52.8,77.2S35.6,254,35.6,219.6s23.6-48,52.8-48
	S140.8,184.8,140.8,219.6z"/>
<path style="fill:#2B3B4E;" d="M70,164.4c0,0,42.4-16.8,64.4,21.6c23.2,41.2-6,86-12,89.6c0,0,1.6-7.2,6-20.8
	c0,0,10.4-30.4-20.8-35.2c0,0-30.4-4-32.4-10.8c0,0,2,11.2,16,13.2c0,0-31.2-0.8-40.8-11.6c0,0-13.2,44,6,67.6
	c0,0-33.6-26.8-29.6-68C26.4,209.6,24.4,152.8,70,164.4z"/>
<path style="fill:#F9B54C;" d="M254.4,359.2H254c-54-26-48-60-48-60l0,0c0-0.4,0-1.2,0.4-1.6c13.2,16,30,26.8,48,26.8
	s34.4-10.8,48-26.8c0,0.4,0.4,1.2,0.4,1.6l0,0C302,299.2,308,333.2,254.4,359.2z"/>
<g>
	<path style="fill:#F1543F;" d="M254.4,359.2C254,359.6,254,359.6,254.4,359.2c-0.4,0-0.4,0-0.4,0H254.4z"/>
	<path style="fill:#F1543F;" d="M273.2,364.8l-6.4,18.4h-25.6l-6.4-18.4c10.4-4.4,19.2-5.2,19.2-5.2S262.8,360,273.2,364.8z"/>
</g>
<path style="fill:#FF7058;" d="M224,506c10,1.2,20,2,30,2s20.4-0.8,30-2l-17.2-122.8h-25.6L224,506z"/>
<g>
	<path style="fill:#324A5E;" d="M431.6,435.6c-40,39.2-92.8,65.2-151.6,71.2c13.6-39.2,21.6-75.6,26-106c0.4,1.2,14-50.4,6.8-82
		l96,46.4L431.6,435.6z"/>
	<path style="fill:#324A5E;" d="M431.2,433.6h-0.4c0,0,0-0.4,0.4-0.8V433.6z"/>
	<path style="fill:#324A5E;" d="M227.6,506.8c-58.8-6-111.6-32-151.6-71.2l22.8-70.4l96-46.4c-7.2,31.6,6.4,82.8,6.8,82
		C206.4,431.2,214,467.2,227.6,506.8z"/>
</g>
<g>
	<path style="fill:#FFFFFF;" d="M302,299.2c0,0,6,34-48,60.4c0,0,40.4,3.2,52,40.8C306.8,402,328.8,319.2,302,299.2z"/>
	<path style="fill:#FFFFFF;" d="M310,385.2c0.4-2,0.8-4,1.2-6.4C310.8,381.2,310.4,383.2,310,385.2z"/>
	<path style="fill:#FFFFFF;" d="M206,299.2c0,0-6,34,48,60.4c0,0-40.4,3.2-52,40.8C201.2,402,179.2,319.2,206,299.2z"/>
	<path style="fill:#FFFFFF;" d="M196.8,379.2c0.4,2.4,0.8,4.4,1.2,6.4C197.6,383.2,197.2,381.2,196.8,379.2z"/>
</g>
<path style="fill:#FFD05B;" d="M315.2,260.8c-6.4,19.6-8.8,30.4-9.2,31.6l0,0c-14,19.2-32,32-52,32c-18.8,0-36-11.6-49.6-29.2
	l0.4,0.4c-29.2-36.4-9.2-102.8-9.2-102.8c14.8,16.8,62.4,18,62.4,18c-20.8-3.2-24-20-24-20c3.2,10,49.6,16.4,49.6,16.4
	C330.8,214,315.2,260.8,315.2,260.8z"/>
<path style="fill:#324A5E;" d="M324,156c-33.2-58.8-98-32.8-98-32.8c-69.2-17.6-66.4,69.2-66.4,69.2c-6,63.2,44.8,104,44.8,104
	c-29.6-36-9.2-102.8-9.2-102.8c14.8,16.8,62.4,18,62.4,18c-20.8-3.2-24-20-24-20c3.2,10,49.6,16.4,49.6,16.4
	c47.6,7.2,32,53.6,32,53.6c-6.8,20.8-9.2,31.6-9.2,31.6C315.2,286.8,359.6,218.8,324,156z"/>
</svg>