<?xml version="1.0" encoding="iso-8859-1"?>
<!-- Uploaded to: SVG Repo, www.svgrepo.com, Generator: SVG Repo Mixer Tools -->
<svg fill="#b45309" height="800px" width="800px" version="1.1" id="Layer_1" xmlns="http://www.w3.org/2000/svg" xmlns:xlink="http://www.w3.org/1999/xlink" 
	 viewBox="0 0 511.997 511.997" xml:space="preserve">
<g>
	<g>
		<path d="M487.582,28.602l-103.587-0.002c-13.48,0-24.412,10.931-24.412,24.414c0,13.485,10.932,24.417,24.415,24.417h44.646
			l-113.7,113.7l-51.791-51.791c-4.579-4.579-10.788-7.152-17.265-7.152c-6.473,0-12.686,2.572-17.263,7.152L97.661,270.301v-38.718
			v-97.661V36.262c0-13.484-10.931-24.415-24.415-24.415h-48.83C10.931,11.847,0,22.779,0,36.262
			c0,13.484,10.931,24.415,24.415,24.415H48.83v48.83H24.415C10.931,109.508,0,120.439,0,133.923s10.931,24.415,24.415,24.415H48.83
			v48.83H24.415C10.931,207.168,0,218.098,0,231.583c0,13.482,10.931,24.415,24.415,24.415H48.83v48.83H24.415
			C10.931,304.829,0,315.758,0,329.244c0,13.482,10.931,24.415,24.415,24.415H48.83v48.83H24.415
			C10.931,402.489,0,413.419,0,426.904c0,13.482,10.931,24.415,24.415,24.415H48.83v24.415c0,13.482,10.931,24.415,24.415,24.415
			c13.484,0,24.415-10.933,24.415-24.415v-24.415h48.83v24.415c0,13.482,10.932,24.415,24.415,24.415s24.415-10.933,24.415-24.415
			v-24.415h48.83v24.415c0,13.482,10.931,24.415,24.415,24.415c13.484,0,24.415-10.933,24.415-24.415v-24.415h48.83v24.415
			c0,13.482,10.931,24.415,24.415,24.415c13.484,0,24.415-10.933,24.415-24.415v-24.415h48.83v24.415
			c0,13.482,10.932,24.415,24.415,24.415s24.415-10.933,24.415-24.415v-48.83c0-13.485-10.931-24.415-24.415-24.415h-97.661h-97.661
			h-97.661H97.661v-63.133l148.226-148.226l51.791,51.793c4.579,4.579,10.788,7.15,17.263,7.15s12.686-2.572,17.263-7.15
			l130.963-130.963v44.642c0,13.482,10.931,24.415,24.415,24.415c13.484,0,24.415-10.933,24.415-24.415V53.017
			C511.997,39.534,501.065,28.602,487.582,28.602z"/>
	</g>
</g>
</svg>