<?xml version="1.0" encoding="iso-8859-1"?>
<!-- Uploaded to: SVG Repo, www.svgrepo.com, Generator: SVG Repo Mixer Tools -->
<svg version="1.1" id="Layer_1" xmlns="http://www.w3.org/2000/svg" xmlns:xlink="http://www.w3.org/1999/xlink" 
	 viewBox="0 0 511.999 511.999" xml:space="preserve">
<rect x="225.324" y="38.969" style="fill:#FCCFEF;" width="35.921" height="58.518"/>
<path style="fill:#FFA6BB;" d="M267.837,78.537H218.73c-14.78,0-26.762,11.982-26.762,26.762v39.445h102.631v-39.445
	C294.599,90.519,282.617,78.537,267.837,78.537z"/>
<path style="opacity:0.1;enable-background:new    ;" d="M242.348,78.537H218.73c-14.78,0-26.762,11.982-26.762,26.762v39.445
	h23.618v-39.445C215.586,90.519,227.567,78.537,242.348,78.537z"/>
<path style="fill:#FF8081;" d="M310.835,114.686H175.732c-21.775,0-39.428,17.652-39.428,39.428v184.423
	c0,21.775,17.652,39.428,39.428,39.428h135.103c21.775,0,39.428-17.652,39.428-39.428V154.114
	C350.262,132.338,332.61,114.686,310.835,114.686z"/>
<path style="opacity:0.1;enable-background:new    ;" d="M176.025,338.538V154.114c0-21.775,17.652-39.428,39.428-39.428h-39.721
	c-21.775,0-39.428,17.652-39.428,39.428v184.424c0,21.776,17.652,39.428,39.428,39.428h39.721
	C193.677,377.964,176.025,360.312,176.025,338.538z"/>
<path style="fill:#FF8081;" d="M172.867,67.58c-7.37,0-13.344-7.21-13.344-16.103c0-22.541,11.951-35.999,31.968-35.999h48.593
	c26.153,0,34.106-6.71,35.389-7.997c3.48-6.641,10.562-9.376,16.688-6.089c6.735,3.611,9.768,13.128,6.775,21.255
	c-2.771,7.529-14.055,25.038-58.853,25.038h-48.593c-2.949,0-4.435,0.464-5.042,0.728c-0.102,0.496-0.237,1.455-0.237,3.065
	C186.211,60.37,180.237,67.58,172.867,67.58z"/>
<path style="fill:#FCCFEF;" d="M135.07,162.869H97.661c-9.149,0-16.565,7.416-16.565,16.565v68.784h70.54v-68.784
	C151.636,170.285,144.219,162.869,135.07,162.869z"/>
<path style="opacity:0.1;enable-background:new    ;" d="M113.764,162.869H97.661c-9.149,0-16.565,7.416-16.565,16.565v68.784
	h16.103v-68.784C97.198,170.285,104.615,162.869,113.764,162.869z"/>
<g>
	<circle style="fill:#D997C6;" cx="116.36" cy="194.813" r="10.443"/>
	<path style="fill:#D997C6;" d="M137.281,225.729H95.449c-14.629,0-26.489,11.859-26.489,26.489v36.148h94.811v-36.148
		C163.771,237.588,151.911,225.729,137.281,225.729z"/>
</g>
<path style="opacity:0.1;enable-background:new    ;" d="M111.552,225.729H95.449c-14.629,0-26.489,11.859-26.489,26.489v36.147
	h16.103v-36.147C85.063,237.588,96.922,225.729,111.552,225.729z"/>
<path style="fill:#BA82AA;" d="M188.664,312.594c-1.79-27.006-24.137-48.03-51.201-48.03H95.269
	c-27.065,0-49.411,21.025-51.201,48.03c-0.814,12.269-1.239,24.922-1.239,37.853c0,38.378,3.743,74.302,10.262,105.068
	c4.254,20.081,21.903,34.491,42.43,34.491h41.691c20.527,0,38.176-14.41,42.43-34.491c6.518-30.766,10.262-66.69,10.262-105.068
	C189.903,337.516,189.476,324.863,188.664,312.594z"/>
<path style="opacity:0.1;enable-background:new    ;" d="M78.854,455.514c-6.518-30.765-10.262-66.69-10.262-105.068
	c0-12.931,0.425-25.583,1.239-37.853c1.79-27.006,24.137-48.03,51.201-48.03H95.268c-27.065,0-49.411,21.024-51.201,48.03
	c-0.814,12.269-1.239,24.922-1.239,37.853c0,38.378,3.743,74.302,10.262,105.068c4.254,20.081,21.903,34.491,42.43,34.491h25.765
	C100.758,490.005,83.109,475.595,78.854,455.514z"/>
<path style="fill:#BA82AA;" d="M442.753,180.044h-88.88c-15.918,0-28.221,12.918-26.202,27.511l31.038,224.273h79.205
	l31.038-224.273C470.974,192.961,458.672,180.044,442.753,180.044z"/>
<path style="opacity:0.1;enable-background:new    ;" d="M386.08,180.044h-32.206c-15.918,0-28.221,12.918-26.201,27.511
	l31.038,224.273h32.206l-31.038-224.273C357.859,192.961,370.161,180.044,386.08,180.044z"/>
<rect x="358.71" y="410.604" style="fill:#FCCFEF;" width="82.458" height="88.233"/>
<path style="fill:#FFA6BB;" d="M175.161,402.404c-0.648,5.928-0.983,11.982-0.983,18.133c0,35.494,11.14,67.717,29.266,91.462
	h151.916c18.126-23.744,29.266-55.967,29.266-91.462c0-6.152-0.335-12.206-0.983-18.133c-0.116-1.061-0.275-2.106-0.454-3.144
	H175.615C175.436,400.298,175.277,401.344,175.161,402.404z"/>
<path style="fill:#FCCFEF;" d="M332.423,356.669H226.378c-25.153,0-46.547,18.107-50.764,42.59h207.573
	C378.971,374.777,357.576,356.669,332.423,356.669z"/>
<path style="opacity:0.1;enable-background:new    ;" d="M209.514,402.404c0.116-1.061,0.275-2.106,0.454-3.144
	c4.217-24.483,25.611-42.59,50.764-42.59h-34.353c-25.153,0-46.547,18.107-50.764,42.59c-0.179,1.038-0.338,2.084-0.454,3.144
	c-0.648,5.928-0.983,11.982-0.983,18.133c0,35.494,11.14,67.717,29.266,91.462h34.353c-18.125-23.744-29.266-55.967-29.266-91.462
	C208.531,414.386,208.865,408.332,209.514,402.404z"/>
</svg>